<?xml version="1.0" encoding="UTF-8" standalone="no"?>
<svg
   xmlns:dc="http://purl.org/dc/elements/1.1/"
   xmlns:cc="http://creativecommons.org/ns#"
   xmlns:rdf="http://www.w3.org/1999/02/22-rdf-syntax-ns#"
   xmlns:svg="http://www.w3.org/2000/svg"
   xmlns="http://www.w3.org/2000/svg"
   id="svg2"
   version="1.1"
   viewBox="0 0 600 600"
   height="600pt"
   width="600pt">
  <metadata
     id="metadata25">
    <rdf:RDF>
      <cc:Work
         rdf:about="">
        <dc:format>image/svg+xml</dc:format>
        <dc:type
           rdf:resource="http://purl.org/dc/dcmitype/StillImage" />
        <dc:title></dc:title>
      </cc:Work>
    </rdf:RDF>
  </metadata>
  <defs
     id="defs23" />
  <g
     id="surface1">
    <rect
       id="rect5"
       style="fill:rgb(100%,100%,100%);fill-opacity:1;stroke:none;"
       height="600"
       width="600"
       y="0"
       x="0" />
    <path
       id="path7"
       d="M 44.623686,293.46101 182.04428,419.79593"
       style="fill:none;stroke:#424242;stroke-width:20;stroke-linecap:butt;stroke-linejoin:miter;stroke-miterlimit:10;stroke-opacity:1" />
    <path
       id="path9"
       d="m 220.15094,450.11038 186.66406,0"
       style="fill:none;stroke:#424242;stroke-width:20;stroke-linecap:butt;stroke-linejoin:miter;stroke-miterlimit:10;stroke-opacity:1" />
    <path
       id="path11"
       d="M 392.21843,451.34583 510.34948,324.83163"
       style="fill:none;stroke:#424242;stroke-width:18.54542351;stroke-linecap:butt;stroke-linejoin:miter;stroke-miterlimit:10;stroke-opacity:1" />
    <path
       id="path13"
       d="m 115.40573,299.94655 c 0,32.33591 -26.216378,58.55229 -58.552283,58.55229 -32.335906,0 -58.5522851,-26.21638 -58.5522851,-58.55229 0,-32.3359 26.2163791,-58.55228 58.5522851,-58.55228 32.335905,0 58.552283,26.21638 58.552283,58.55228"
       style="fill:#000000;fill-opacity:1;fill-rule:nonzero;stroke:#000000;stroke-width:2.60232377;stroke-linecap:butt;stroke-linejoin:miter;stroke-miterlimit:10;stroke-opacity:1" />
    <path
       id="path15"
       d="m 264.56279,449.89712 c 0,32.57871 -26.41323,58.99195 -58.99194,58.99195 -32.57871,0 -58.99195,-26.41324 -58.99195,-58.99195 0,-32.57871 26.41324,-58.99195 58.99195,-58.99195 32.57871,0 58.99194,26.41324 58.99194,58.99195"
       style="fill:#000000;fill-opacity:1;fill-rule:nonzero;stroke:#000000;stroke-width:2.62186432;stroke-linecap:butt;stroke-linejoin:miter;stroke-miterlimit:10;stroke-opacity:1" />
    <path
       id="path15-9"
       d="m 456.22057,450.15896 c 0,32.57871 -26.41323,58.99195 -58.99194,58.99195 -32.57871,0 -58.99195,-26.41324 -58.99195,-58.99195 0,-32.57871 26.41324,-58.99195 58.99195,-58.99195 32.57871,0 58.99194,26.41324 58.99194,58.99195"
       style="fill:#000000;fill-opacity:1;fill-rule:nonzero;stroke:#000000;stroke-width:2.62186432;stroke-linecap:butt;stroke-linejoin:miter;stroke-miterlimit:10;stroke-opacity:1" />
    <path
       id="path13-0"
       d="m 596.97215,298.48492 c 0,32.33591 -26.21638,58.55228 -58.55229,58.55228 -32.3359,0 -58.55228,-26.21637 -58.55228,-58.55228 0,-32.3359 26.21638,-58.55228 58.55228,-58.55228 32.33591,0 58.55229,26.21638 58.55229,58.55228"
       style="fill:#000000;fill-opacity:1;fill-rule:nonzero;stroke:#000000;stroke-width:2.60232377;stroke-linecap:butt;stroke-linejoin:miter;stroke-miterlimit:10;stroke-opacity:1" />
  </g>
</svg>
