<?xml version="1.0" encoding="UTF-8" standalone="no"?>
<svg
   xmlns:dc="http://purl.org/dc/elements/1.1/"
   xmlns:cc="http://creativecommons.org/ns#"
   xmlns:rdf="http://www.w3.org/1999/02/22-rdf-syntax-ns#"
   xmlns:svg="http://www.w3.org/2000/svg"
   xmlns="http://www.w3.org/2000/svg"
   id="svg2"
   version="1.1"
   viewBox="0 0 600 600"
   height="600pt"
   width="600pt">
  <metadata
     id="metadata29">
    <rdf:RDF>
      <cc:Work
         rdf:about="">
        <dc:format>image/svg+xml</dc:format>
        <dc:type
           rdf:resource="http://purl.org/dc/dcmitype/StillImage" />
        <dc:title></dc:title>
      </cc:Work>
    </rdf:RDF>
  </metadata>
  <defs
     id="defs27" />
  <g
     id="surface1">
    <rect
       id="rect5"
       style="fill:rgb(100%,100%,100%);fill-opacity:1;stroke:none;"
       height="600"
       width="600"
       y="0"
       x="0" />
    <path
       id="path7"
       d="M 208.12463,300.97112 54.136556,69.990612"
       style="fill:none;stroke:#424242;stroke-width:16.49860764;stroke-linecap:butt;stroke-linejoin:miter;stroke-miterlimit:10;stroke-opacity:1" />
    <path
       id="path9"
       d="M 206.667969 300 L 20 580 "
       style="fill:none;stroke-width:20;stroke-linecap:butt;stroke-linejoin:miter;stroke:rgb(26.666667%,26.666667%,26.666667%);stroke-opacity:1;stroke-miterlimit:10;" />
    <path
       id="path11"
       d="M 206.667969 300 L 393.332031 300 "
       style="fill:none;stroke-width:20;stroke-linecap:butt;stroke-linejoin:miter;stroke:rgb(26.666667%,26.666667%,26.666667%);stroke-opacity:1;stroke-miterlimit:10;" />
    <path
       id="path13"
       d="M 393.332031 300 L 580 300 "
       style="fill:none;stroke-width:20;stroke-linecap:butt;stroke-linejoin:miter;stroke:rgb(26.666667%,26.666667%,26.666667%);stroke-opacity:1;stroke-miterlimit:10;" />
    <path
       id="path15"
       d="m 257.47666,297.4 c 0,34.57609 -28.0326,62.6087 -62.60869,62.6087 -34.57609,0 -62.6087,-28.03261 -62.6087,-62.6087 0,-34.57609 28.03261,-62.6087 62.6087,-62.6087 34.57609,0 62.60869,28.03261 62.60869,62.6087"
       style="fill:#2b1100;fill-opacity:1;fill-rule:nonzero;stroke:#000000;stroke-width:2.78260875;stroke-linecap:butt;stroke-linejoin:miter;stroke-miterlimit:10;stroke-opacity:1" />
    <path
       id="path17"
       d="m 130.0087,71.8 c 0,34.57609 -28.03261,62.6087 -62.6087,62.6087 C 32.823914,134.4087 4.7913043,106.37609 4.7913043,71.8 4.7913043,37.223914 32.823914,9.191304 67.4,9.191304 c 34.57609,0 62.6087,28.03261 62.6087,62.608696"
       style="fill:#502d16;fill-opacity:1;fill-rule:nonzero;stroke:#000000;stroke-width:2.78260875;stroke-linecap:butt;stroke-linejoin:miter;stroke-miterlimit:10;stroke-opacity:1" />
    <path
       id="path19"
       d="m 130.0087,539 c 0,34.57609 -28.03261,62.6087 -62.6087,62.6087 -34.576086,0 -62.6086957,-28.03261 -62.6086957,-62.6087 0,-34.57609 28.0326097,-62.6087 62.6086957,-62.6087 34.57609,0 62.6087,28.03261 62.6087,62.6087"
       style="fill:#2b1100;fill-opacity:1;fill-rule:nonzero;stroke:#000000;stroke-width:2.78260875;stroke-linecap:butt;stroke-linejoin:miter;stroke-miterlimit:10;stroke-opacity:1" />
    <path
       id="path21"
       d="m 426.54073,299 c 0,34.57609 -28.03261,62.6087 -62.6087,62.6087 -34.57609,0 -62.60869,-28.03261 -62.60869,-62.6087 0,-34.57609 28.0326,-62.6087 62.60869,-62.6087 34.57609,0 62.6087,28.03261 62.6087,62.6087"
       style="fill:#28170b;fill-opacity:1;fill-rule:nonzero;stroke:#000000;stroke-width:2.78260875;stroke-linecap:butt;stroke-linejoin:miter;stroke-miterlimit:10;stroke-opacity:1" />
    <path
       id="path23"
       d="m 597.2087,299 c 0,34.57609 -28.03261,62.6087 -62.6087,62.6087 -34.57609,0 -62.6087,-28.03261 -62.6087,-62.6087 0,-34.57609 28.03261,-62.6087 62.6087,-62.6087 34.57609,0 62.6087,28.03261 62.6087,62.6087"
       style="fill:#000000;fill-opacity:1;fill-rule:nonzero;stroke:#000000;stroke-width:2.78260875;stroke-linecap:butt;stroke-linejoin:miter;stroke-miterlimit:10;stroke-opacity:1" />
  </g>
</svg>
