<?xml version="1.0" encoding="UTF-8" standalone="no"?>
<svg
   xmlns:dc="http://purl.org/dc/elements/1.1/"
   xmlns:cc="http://creativecommons.org/ns#"
   xmlns:rdf="http://www.w3.org/1999/02/22-rdf-syntax-ns#"
   xmlns:svg="http://www.w3.org/2000/svg"
   xmlns="http://www.w3.org/2000/svg"
   id="svg2"
   version="1.1"
   viewBox="0 0 600 600"
   height="600pt"
   width="600pt">
  <metadata
     id="metadata33">
    <rdf:RDF>
      <cc:Work
         rdf:about="">
        <dc:format>image/svg+xml</dc:format>
        <dc:type
           rdf:resource="http://purl.org/dc/dcmitype/StillImage" />
        <dc:title></dc:title>
      </cc:Work>
    </rdf:RDF>
  </metadata>
  <defs
     id="defs31" />
  <g
     id="surface1">
    <rect
       id="rect5"
       style="fill:rgb(100%,100%,100%);fill-opacity:1;stroke:none;"
       height="600"
       width="600"
       y="0"
       x="0" />
    <path
       id="path7"
       d="M 55.2,43.450847 55.2,570.4"
       style="fill:none;stroke:#424242;stroke-width:19.40083122;stroke-linecap:butt;stroke-linejoin:miter;stroke-miterlimit:10;stroke-opacity:1" />
    <path
       id="path9"
       d="M 20 20 L 580 580 "
       style="fill:none;stroke-width:20;stroke-linecap:butt;stroke-linejoin:miter;stroke:rgb(26.666667%,26.666667%,26.666667%);stroke-opacity:1;stroke-miterlimit:10;" />
    <path
       id="path11"
       d="M 20 580 L 580 20 "
       style="fill:none;stroke-width:20;stroke-linecap:butt;stroke-linejoin:miter;stroke:rgb(26.666667%,26.666667%,26.666667%);stroke-opacity:1;stroke-miterlimit:10;" />
    <path
       id="path13"
       d="M 20 580 L 300 20 "
       style="fill:none;stroke-width:20;stroke-linecap:butt;stroke-linejoin:miter;stroke:rgb(26.666667%,26.666667%,26.666667%);stroke-opacity:1;stroke-miterlimit:10;" />
    <path
       id="path15"
       d="M 540,570.4 540,45.99322"
       style="fill:none;stroke:#424242;stroke-width:19.35397339;stroke-linecap:butt;stroke-linejoin:miter;stroke-miterlimit:10;stroke-opacity:1" />
    <path
       id="path17"
       d="M 575.2,580 295.2,20"
       style="fill:none;stroke:#424242;stroke-width:20;stroke-linecap:butt;stroke-linejoin:miter;stroke-miterlimit:10;stroke-opacity:1" />
    <path
       id="path19"
       d="m 126.8087,65.4 c 0,34.57609 -28.032614,62.6087 -62.6087,62.6087 C 29.623914,128.0087 1.5913043,99.97609 1.5913043,65.4 1.5913043,30.823914 29.623914,2.791304 64.2,2.791304 c 34.576086,0 62.6087,28.03261 62.6087,62.608696"
       style="fill:#000000;fill-opacity:1;fill-rule:nonzero;stroke:#000000;stroke-width:2.78260875;stroke-linecap:butt;stroke-linejoin:miter;stroke-miterlimit:10;stroke-opacity:1" />
    <path
       id="path21"
       d="m 126.8087,535.8 c 0,34.57609 -28.032614,62.6087 -62.6087,62.6087 -34.576086,0 -62.6086957,-28.03261 -62.6086957,-62.6087 0,-34.57609 28.0326097,-62.6087 62.6086957,-62.6087 34.576086,0 62.6087,28.03261 62.6087,62.6087"
       style="fill:#2b1100;fill-opacity:1;fill-rule:nonzero;stroke:#000000;stroke-width:2.78260875;stroke-linecap:butt;stroke-linejoin:miter;stroke-miterlimit:10;stroke-opacity:1" />
    <path
       id="path23"
       d="m 597.2087,535.8 c 0,34.57609 -28.03261,62.6087 -62.6087,62.6087 -34.57609,0 -62.6087,-28.03261 -62.6087,-62.6087 0,-34.57609 28.03261,-62.6087 62.6087,-62.6087 34.57609,0 62.6087,28.03261 62.6087,62.6087"
       style="fill:#2b1100;fill-opacity:1;fill-rule:nonzero;stroke:#000000;stroke-width:2.78260875;stroke-linecap:butt;stroke-linejoin:miter;stroke-miterlimit:10;stroke-opacity:1" />
    <path
       id="path25"
       d="m 597.2087,65.4 c 0,34.576086 -28.03261,62.6087 -62.6087,62.6087 -34.57609,0 -62.6087,-28.032614 -62.6087,-62.6087 0,-34.576086 28.03261,-62.608696 62.6087,-62.608696 34.57609,0 62.6087,28.03261 62.6087,62.608696"
       style="fill:#000000;fill-opacity:1;fill-rule:nonzero;stroke:#000000;stroke-width:2.78260875;stroke-linecap:butt;stroke-linejoin:miter;stroke-miterlimit:10;stroke-opacity:1" />
    <path
       id="path27"
       d="m 362.0087,65.4 c 0,34.576086 -28.03261,62.6087 -62.6087,62.6087 -34.57609,0 -62.6087,-28.032614 -62.6087,-62.6087 0,-34.576086 28.03261,-62.608696 62.6087,-62.608696 34.57609,0 62.6087,28.03261 62.6087,62.608696"
       style="fill:#000000;fill-opacity:1;fill-rule:nonzero;stroke:#000000;stroke-width:2.78260875;stroke-linecap:butt;stroke-linejoin:miter;stroke-miterlimit:10;stroke-opacity:1" />
  </g>
</svg>
