<?xml version="1.0" encoding="UTF-8" standalone="no"?>
<svg
   xmlns:dc="http://purl.org/dc/elements/1.1/"
   xmlns:cc="http://creativecommons.org/ns#"
   xmlns:rdf="http://www.w3.org/1999/02/22-rdf-syntax-ns#"
   xmlns:svg="http://www.w3.org/2000/svg"
   xmlns="http://www.w3.org/2000/svg"
   id="svg2"
   version="1.1"
   viewBox="0 0 600 600"
   height="600pt"
   width="600pt">
  <metadata
     id="metadata17">
    <rdf:RDF>
      <cc:Work
         rdf:about="">
        <dc:format>image/svg+xml</dc:format>
        <dc:type
           rdf:resource="http://purl.org/dc/dcmitype/StillImage" />
        <dc:title></dc:title>
      </cc:Work>
    </rdf:RDF>
  </metadata>
  <defs
     id="defs15" />
  <g
     id="surface1">
    <rect
       id="rect5"
       style="fill:rgb(100%,100%,100%);fill-opacity:1;stroke:none;"
       height="600"
       width="600"
       y="0"
       x="0" />
    <path
       id="path7"
       d="M 20 300 L 580 300 "
       style="fill:none;stroke-width:20;stroke-linecap:butt;stroke-linejoin:miter;stroke:rgb(26.666667%,26.666667%,26.666667%);stroke-opacity:1;stroke-miterlimit:10;" />
    <path
       id="path9"
       d="m 144.01719,299.66439 c 0,35.39532 -28.23263,64.09214 -63.055431,64.09214 -34.822797,0 -63.055429,-28.69682 -63.055429,-64.09214 0,-35.39533 28.232632,-64.09213 63.055429,-64.09213 34.822801,0 63.055431,28.6968 63.055431,64.09213"
       style="fill:#000000;fill-opacity:1;fill-rule:nonzero;stroke:#000000;stroke-width:2.82540751;stroke-linecap:butt;stroke-linejoin:miter;stroke-miterlimit:10;stroke-opacity:1" />
    <path
       id="path9-3"
       d="m 579.3517,302.55603 c 0,35.39532 -28.23263,64.09215 -63.05543,64.09215 -34.82279,0 -63.05543,-28.69683 -63.05543,-64.09215 0,-35.39533 28.23264,-64.09213 63.05543,-64.09213 34.8228,0 63.05543,28.6968 63.05543,64.09213"
       style="fill:#000000;fill-opacity:1;fill-rule:nonzero;stroke:#000000;stroke-width:2.82540751;stroke-linecap:butt;stroke-linejoin:miter;stroke-miterlimit:10;stroke-opacity:1" />
  </g>
</svg>
