<?xml version="1.0" encoding="UTF-8" standalone="no"?>
<svg
   xmlns:dc="http://purl.org/dc/elements/1.1/"
   xmlns:cc="http://creativecommons.org/ns#"
   xmlns:rdf="http://www.w3.org/1999/02/22-rdf-syntax-ns#"
   xmlns:svg="http://www.w3.org/2000/svg"
   xmlns="http://www.w3.org/2000/svg"
   id="svg2"
   version="1.1"
   viewBox="0 0 600 600"
   height="600pt"
   width="600pt">
  <metadata
     id="metadata31">
    <rdf:RDF>
      <cc:Work
         rdf:about="">
        <dc:format>image/svg+xml</dc:format>
        <dc:type
           rdf:resource="http://purl.org/dc/dcmitype/StillImage" />
        <dc:title></dc:title>
      </cc:Work>
    </rdf:RDF>
  </metadata>
  <defs
     id="defs29" />
  <g
     id="surface1">
    <rect
       id="rect5"
       style="fill:rgb(100%,100%,100%);fill-opacity:1;stroke:none;"
       height="600"
       width="600"
       y="0"
       x="0" />
    <path
       id="path7"
       d="m 68.305085,20 0,560"
       style="fill:none;stroke:#424242;stroke-width:20;stroke-linecap:butt;stroke-linejoin:miter;stroke-miterlimit:10;stroke-opacity:1" />
    <path
       id="path9"
       d="m 20,68.305085 560,0"
       style="fill:none;stroke:#424242;stroke-width:20;stroke-linecap:butt;stroke-linejoin:miter;stroke-miterlimit:10;stroke-opacity:1" />
    <path
       id="path11"
       d="M 52.048877,62.218369 532.6969,542.86638"
       style="fill:none;stroke:#424242;stroke-width:17.16600037;stroke-linecap:butt;stroke-linejoin:miter;stroke-miterlimit:10;stroke-opacity:1" />
    <path
       id="path13"
       d="M 29.605884,585.64836 544.97039,70.28385"
       style="fill:none;stroke:#424242;stroke-width:18.40587425;stroke-linecap:butt;stroke-linejoin:miter;stroke-miterlimit:10;stroke-opacity:1" />
    <path
       id="path15"
       d="m 17.457627,539.32203 560.000003,0"
       style="fill:none;stroke:#424242;stroke-width:20;stroke-linecap:butt;stroke-linejoin:miter;stroke-miterlimit:10;stroke-opacity:1" />
    <path
       id="path17"
       d="m 534.23729,27.627119 0,560.000001"
       style="fill:none;stroke:#424242;stroke-width:20;stroke-linecap:butt;stroke-linejoin:miter;stroke-miterlimit:10;stroke-opacity:1" />
    <path
       id="path19"
       d="m 131.89345,70.525424 c 0,34.576086 -28.03262,62.608696 -62.608704,62.608696 -34.576086,0 -62.6086959,-28.03261 -62.6086959,-62.608696 0,-34.576086 28.0326099,-62.6086963 62.6086959,-62.6086963 34.576084,0 62.608704,28.0326103 62.608704,62.6086963"
       style="fill:#000000;fill-opacity:1;fill-rule:nonzero;stroke:#000000;stroke-width:2.78260875;stroke-linecap:butt;stroke-linejoin:miter;stroke-miterlimit:10;stroke-opacity:1" />
    <path
       id="path21"
       d="m 130.0087,535.8 c 0,34.57609 -28.03261,62.6087 -62.6087,62.6087 -34.576086,0 -62.6086957,-28.03261 -62.6086957,-62.6087 0,-34.57609 28.0326097,-62.6087 62.6086957,-62.6087 34.57609,0 62.6087,28.03261 62.6087,62.6087"
       style="fill:#000000;fill-opacity:1;fill-rule:nonzero;stroke:#000000;stroke-width:2.78260875;stroke-linecap:butt;stroke-linejoin:miter;stroke-miterlimit:10;stroke-opacity:1" />
    <path
       id="path23"
       d="m 597.45277,70.525424 c 0,34.576086 -28.03261,62.608696 -62.6087,62.608696 -34.57609,0 -62.6087,-28.03261 -62.6087,-62.608696 0,-34.576086 28.03261,-62.6086963 62.6087,-62.6086963 34.57609,0 62.6087,28.0326103 62.6087,62.6086963"
       style="fill:#000000;fill-opacity:1;fill-rule:nonzero;stroke:#000000;stroke-width:2.78260875;stroke-linecap:butt;stroke-linejoin:miter;stroke-miterlimit:10;stroke-opacity:1" />
    <path
       id="path25"
       d="m 597.2087,535.8 c 0,34.57609 -28.03261,62.6087 -62.6087,62.6087 -34.57609,0 -62.6087,-28.03261 -62.6087,-62.6087 0,-34.57609 28.03261,-62.6087 62.6087,-62.6087 34.57609,0 62.6087,28.03261 62.6087,62.6087"
       style="fill:#000000;fill-opacity:1;fill-rule:nonzero;stroke:#000000;stroke-width:2.78260875;stroke-linecap:butt;stroke-linejoin:miter;stroke-miterlimit:10;stroke-opacity:1" />
  </g>
</svg>
