<?xml version="1.0" encoding="UTF-8" standalone="no"?>
<svg
   xmlns:dc="http://purl.org/dc/elements/1.1/"
   xmlns:cc="http://creativecommons.org/ns#"
   xmlns:rdf="http://www.w3.org/1999/02/22-rdf-syntax-ns#"
   xmlns:svg="http://www.w3.org/2000/svg"
   xmlns="http://www.w3.org/2000/svg"
   id="svg2"
   version="1.1"
   viewBox="0 0 600 600"
   height="600pt"
   width="600pt">
  <metadata
     id="metadata27">
    <rdf:RDF>
      <cc:Work
         rdf:about="">
        <dc:format>image/svg+xml</dc:format>
        <dc:type
           rdf:resource="http://purl.org/dc/dcmitype/StillImage" />
        <dc:title></dc:title>
      </cc:Work>
    </rdf:RDF>
  </metadata>
  <defs
     id="defs25" />
  <g
     id="surface1">
    <rect
       id="rect5"
       style="fill:rgb(100%,100%,100%);fill-opacity:1;stroke:none;"
       height="600"
       width="600"
       y="0"
       x="0" />
    <path
       id="path7"
       d="m 70.847458,20 0,560"
       style="fill:none;stroke:#424242;stroke-width:20;stroke-linecap:butt;stroke-linejoin:miter;stroke-miterlimit:10;stroke-opacity:1" />
    <path
       id="path9"
       d="m 20,72.8 560,0"
       style="fill:none;stroke:#424242;stroke-width:20;stroke-linecap:butt;stroke-linejoin:miter;stroke-miterlimit:10;stroke-opacity:1" />
    <path
       id="path11"
       d="m 20,539.32204 560,0"
       style="fill:none;stroke:#424242;stroke-width:20;stroke-linecap:butt;stroke-linejoin:miter;stroke-miterlimit:10;stroke-opacity:1" />
    <path
       id="path13"
       d="m 532.0678,12.372881 0,559.999999"
       style="fill:none;stroke:#424242;stroke-width:20;stroke-linecap:butt;stroke-linejoin:miter;stroke-miterlimit:10;stroke-opacity:1" />
    <path
       id="path15"
       d="m 132.57163,70.277966 c 0,34.402104 -27.89156,62.293664 -62.293664,62.293664 -34.402107,0 -62.2936624,-27.89156 -62.2936624,-62.293664 0,-34.402107 27.8915554,-62.2936624 62.2936624,-62.2936624 34.402104,0 62.293664,27.8915554 62.293664,62.2936624"
       style="fill:#000000;fill-opacity:1;fill-rule:nonzero;stroke:#000000;stroke-width:2.76860714;stroke-linecap:butt;stroke-linejoin:miter;stroke-miterlimit:10;stroke-opacity:1" />
    <path
       id="path15-2"
       d="m 131.59536,537.01016 c 0,34.40211 -27.89156,62.29367 -62.29366,62.29367 -34.402113,0 -62.2936683,-27.89156 -62.2936683,-62.29367 0,-34.4021 27.8915553,-62.29366 62.2936683,-62.29366 34.4021,0 62.29366,27.89156 62.29366,62.29366"
       style="fill:#000000;fill-opacity:1;fill-rule:nonzero;stroke:#000000;stroke-width:2.76860714;stroke-linecap:butt;stroke-linejoin:miter;stroke-miterlimit:10;stroke-opacity:1" />
    <path
       id="path15-4"
       d="m 593.27672,72.216944 c 0,34.402106 -27.89156,62.293666 -62.29367,62.293666 -34.40211,0 -62.29366,-27.89156 -62.29366,-62.293666 0,-34.4021 27.89155,-62.2936598 62.29366,-62.2936598 34.40211,0 62.29367,27.8915598 62.29367,62.2936598"
       style="fill:#000000;fill-opacity:1;fill-rule:nonzero;stroke:#000000;stroke-width:2.76860714;stroke-linecap:butt;stroke-linejoin:miter;stroke-miterlimit:10;stroke-opacity:1" />
    <path
       id="path15-42"
       d="m 593.56146,537.66779 c 0,34.40211 -27.89156,62.29367 -62.29367,62.29367 -34.4021,0 -62.29366,-27.89156 -62.29366,-62.29367 0,-34.40211 27.89156,-62.29366 62.29366,-62.29366 34.40211,0 62.29367,27.89155 62.29367,62.29366"
       style="fill:#000000;fill-opacity:1;fill-rule:nonzero;stroke:#000000;stroke-width:2.76860714;stroke-linecap:butt;stroke-linejoin:miter;stroke-miterlimit:10;stroke-opacity:1" />
  </g>
</svg>
