<?xml version="1.0" encoding="UTF-8" standalone="no"?>
<svg
   xmlns:dc="http://purl.org/dc/elements/1.1/"
   xmlns:cc="http://creativecommons.org/ns#"
   xmlns:rdf="http://www.w3.org/1999/02/22-rdf-syntax-ns#"
   xmlns:svg="http://www.w3.org/2000/svg"
   xmlns="http://www.w3.org/2000/svg"
   id="svg2"
   version="1.1"
   viewBox="0 0 600 600"
   height="600pt"
   width="600pt">
  <metadata
     id="metadata25">
    <rdf:RDF>
      <cc:Work
         rdf:about="">
        <dc:format>image/svg+xml</dc:format>
        <dc:type
           rdf:resource="http://purl.org/dc/dcmitype/StillImage" />
        <dc:title></dc:title>
      </cc:Work>
    </rdf:RDF>
  </metadata>
  <defs
     id="defs23" />
  <g
     id="surface1">
    <rect
       id="rect5"
       style="fill:rgb(100%,100%,100%);fill-opacity:1;stroke:none;"
       height="600"
       width="600"
       y="0"
       x="0" />
    <path
       id="path7"
       d="M 300 300 L 300 580 "
       style="fill:none;stroke-width:20;stroke-linecap:butt;stroke-linejoin:miter;stroke:rgb(26.666667%,26.666667%,26.666667%);stroke-opacity:1;stroke-miterlimit:10;" />
    <path
       id="path9"
       d="M 300 300 L 580 20 "
       style="fill:none;stroke-width:20;stroke-linecap:butt;stroke-linejoin:miter;stroke:rgb(26.666667%,26.666667%,26.666667%);stroke-opacity:1;stroke-miterlimit:10;" />
    <path
       id="path11"
       d="M 300 300 L 20 20 "
       style="fill:none;stroke-width:20;stroke-linecap:butt;stroke-linejoin:miter;stroke:rgb(26.666667%,26.666667%,26.666667%);stroke-opacity:1;stroke-miterlimit:10;" />
    <path
       id="path13"
       d="m 362.11843,292.35965 c 0,33.06432 -26.80694,59.87127 -59.87127,59.87127 -33.06432,0 -59.87127,-26.80695 -59.87127,-59.87127 0,-33.06433 26.80695,-59.87127 59.87127,-59.87127 33.06433,0 59.87127,26.80694 59.87127,59.87127"
       style="fill:#000000;fill-opacity:1;fill-rule:nonzero;stroke:#000000;stroke-width:2.66094542;stroke-linecap:butt;stroke-linejoin:miter;stroke-miterlimit:10;stroke-opacity:1" />
    <path
       id="path15"
       d="m 360.38392,539.04769 c 0,32.82152 -26.61009,59.43161 -59.43161,59.43161 -32.82152,0 -59.43161,-26.61009 -59.43161,-59.43161 0,-32.82152 26.61009,-59.43161 59.43161,-59.43161 32.82152,0 59.43161,26.61009 59.43161,59.43161"
       style="fill:#000000;fill-opacity:1;fill-rule:nonzero;stroke:#000000;stroke-width:2.64140487;stroke-linecap:butt;stroke-linejoin:miter;stroke-miterlimit:10;stroke-opacity:1" />
    <path
       id="path15-4"
       d="m 120.5544,62.478999 c 0,32.82152 -26.610085,59.431611 -59.431605,59.431611 -32.82152,0 -59.4316098,-26.610091 -59.4316098,-59.431611 0,-32.82152 26.6100898,-59.4316105 59.4316098,-59.4316105 32.82152,0 59.431605,26.6100905 59.431605,59.4316105"
       style="fill:#000000;fill-opacity:1;fill-rule:nonzero;stroke:#000000;stroke-width:2.64140487;stroke-linecap:butt;stroke-linejoin:miter;stroke-miterlimit:10;stroke-opacity:1" />
    <path
       id="path15-4-8"
       d="m 597.85148,62.478996 c 0,32.82152 -26.61009,59.431614 -59.43161,59.431614 -32.82152,0 -59.43161,-26.610094 -59.43161,-59.431614 0,-32.82152 26.61009,-59.431607 59.43161,-59.431607 32.82152,0 59.43161,26.610087 59.43161,59.431607"
       style="fill:#000000;fill-opacity:1;fill-rule:nonzero;stroke:#000000;stroke-width:2.64140487;stroke-linecap:butt;stroke-linejoin:miter;stroke-miterlimit:10;stroke-opacity:1" />
  </g>
</svg>
